{"title":"Lost.Girl.S03E08.HDTV.DivX-Atilla82","uid":8243510,"size":366542529,"categoryP":"video","categoryS":"tv_shows","magnet":"?xt=urn:btih:a1dab1b622a1ba7e0b9a247d9077a935d04acdf6&amp;dn=Lost.Girl.S03E08.HDTV.DivX-Atilla82&amp;tr=udp%3A%2F%2Ftracker.openbittorrent.com%3A80&amp;tr=udp%3A%2F%2Fopen.demonii.com%3A1337&amp;tr=udp%3A%2F%2Ftracker.coppersurfer.tk%3A6969&amp;tr=udp%3A%2F%2Fexodus.desync.com%3A6969","seeders":1,"leechers":1,"uploader":"Atilla82","files":2,"time":1363009778,"description":"Lost Girl S03E08 HDTV DivX Atilla82\n\n &lt;a href=&quot;\nhttp://www.imdb.com/title/tt1429449/&quot; rel=&quot;nofollow&quot; target=&quot;_NEW&quot;&gt;\nhttp://www.imdb.com/title/tt1429449/&lt;/a&gt;\n\n\n\n\nGeneral\nComplete name : lost.girl.s03e08.hdtv.divx-atilla82.avi\nFormat : AVI\nFormat/Info : Audio Video Interleave\nFile size : 349 MiB\nDuration : 43mn 52s\nOverall bit rate : 1 113 Kbps\nWriting application : VirtualDubMod 1.5.10.2 (build 2540/release)\nWriting library : VirtualDubMod build 2540/release\n\nVideo\nID : 0\nFormat : MPEG-4 Visual\nFormat settings, BVOP : 1\nFormat settings, QPel : No\nFormat settings, GMC : No warppoints\nFormat settings, Matrix : Default (H.263)\nMuxing mode : Packed bitstream\nCodec ID : DX50\nCodec ID/Hint : DivX 5\nDuration : 43mn 52s\nBit rate : 976 Kbps\nWidth : 680 pixels\nHeight : 382 pixels\nDisplay aspect ratio : 16:9\nFrame rate : 23.976 fps\nColor space : YUV\nChroma subsampling : 4:2:0\nBit depth : 8 bits\nScan type : Progressive\nCompression mode : Lossy\nBits/(Pixel*Frame) : 0.157\nStream size : 306 MiB (88%)\nWriting library : DivX 2682\n\nAudio\nID : 1\nFormat : MPEG Audio\nFormat version : Version 1\nFormat profile : Layer 3\nMode : Joint stereo\nCodec ID : 55\nCodec ID/Hint : MP3\nDuration : 43mn 52s\nBit rate mode : Constant\nBit rate : 128 Kbps\nChannel(s) : 2 channels\nSampling rate : 48.0 KHz\nCompression mode : Lossy\nStream size : 40.2 MiB (11%)\nAlignment : Aligned on interleaves\nInterleave, duration : 42 ms (1.00 video frame)\nInterleave, preload duration : 504 ms\n\n\n\nSCREENS &lt;a href=&quot;\nhttp://www.pohrani.com/f/2b/Dt/1T2jBVWL/screenshotslg308.jpg&quot; rel=&quot;nofollow&quot; target=&quot;_NEW&quot;&gt;\nhttp://www.pohrani.com/f/2b/Dt/1T2jBVWL/screenshotslg308.jpg&lt;/a&gt;\n\n\n\n","torrent":{"xt":"urn:btih:a1dab1b622a1ba7e0b9a247d9077a935d04acdf6","amp;dn":"Lost.Girl.S03E08.HDTV.DivX-Atilla82","amp;tr":["udp%3A%2F%2Ftracker.openbittorrent.com%3A80","udp%3A%2F%2Fopen.demonii.com%3A1337","udp%3A%2F%2Ftracker.coppersurfer.tk%3A6969","udp%3A%2F%2Fexodus.desync.com%3A6969"],"infoHash":"a1dab1b622a1ba7e0b9a247d9077a935d04acdf6","infoHashBuffer":{"type":"Buffer","data":[161,218,177,182,34,161,186,126,11,154,36,125,144,119,169,53,208,74,205,246]},"announce":[],"urlList":[]}}